<svg width="20" height="20" viewBox="0 0 20 20" fill="none" xmlns="http://www.w3.org/2000/svg">
<g id="Home">
<path id="Rectangle 1" d="M3.33337 9.79811C3.33337 8.52908 3.33337 7.89456 3.59477 7.33682C3.85616 6.77908 4.34706 6.36614 5.32885 5.54027L6.28123 4.73914C8.05582 3.24638 8.94311 2.5 10 2.5C11.057 2.5 11.9443 3.24638 13.7188 4.73914L14.6712 5.54027C15.653 6.36614 16.1439 6.77908 16.4053 7.33682C16.6667 7.89456 16.6667 8.52908 16.6667 9.79811V13.7614C16.6667 15.5238 16.6667 16.405 16.1088 16.9525C15.5509 17.5 14.653 17.5 12.8572 17.5H7.1429C5.34707 17.5 4.44916 17.5 3.89127 16.9525C3.33337 16.405 3.33337 15.5238 3.33337 13.7614V9.79811Z" stroke="#333333" stroke-width="2"/>
<path id="Vector 3" d="M12.5 16.5V11.5C12.5 10.9477 12.0523 10.5 11.5 10.5H8.5C7.94772 10.5 7.5 10.9477 7.5 11.5V16.5" stroke="#333333" stroke-width="2" stroke-linecap="round" stroke-linejoin="round"/>
</g>
</svg>
